<svg width="80" height="26" viewBox="0 0 80 26" fill="none" xmlns="http://www.w3.org/2000/svg">
<path d="M15 4H3C2.46957 4 1.96086 4.21071 1.58579 4.58579C1.21071 4.96086 1 5.46957 1 6V22C1 22.5304 1.21071 23.0391 1.58579 23.4142C1.96086 23.7893 2.46957 24 3 24H15C15.5304 24 16.0391 23.7893 16.4142 23.4142C16.7893 23.0391 17 22.5304 17 22L17 6C17 4.89543 16.1046 4 15 4V4Z" stroke="#708598" stroke-width="1.5" stroke-linecap="round" stroke-linejoin="round"/>
<path d="M12.9999 14.0005H4.99988" stroke="#708598" stroke-width="1.5" stroke-linecap="round" stroke-linejoin="round"/>
<path d="M12.9999 18H4.99988" stroke="#708598" stroke-width="1.5" stroke-linecap="round" stroke-linejoin="round"/>
<path d="M9.99988 10H7.49988H4.99988" stroke="#708598" stroke-width="1.5" stroke-linecap="round" stroke-linejoin="round"/>
<circle cx="16" cy="5" r="4" fill="#E92F2F" stroke="#FAFBFC" stroke-width="2"/>
<path d="M34.5713 10.2637C33.6325 10.2637 32.8942 10.5964 32.3564 11.2617C31.8187 11.9271 31.5498 12.8454 31.5498 14.0166C31.5498 15.2425 31.8073 16.1699 32.3223 16.7988C32.8418 17.4277 33.5915 17.7422 34.5713 17.7422C34.9951 17.7422 35.4053 17.7012 35.8018 17.6191C36.1982 17.5326 36.6107 17.4232 37.0391 17.291V18.6924C36.2552 18.9886 35.3665 19.1367 34.373 19.1367C32.9102 19.1367 31.7868 18.6947 31.0029 17.8105C30.2191 16.9219 29.8271 15.6527 29.8271 14.0029C29.8271 12.9639 30.0163 12.0547 30.3945 11.2754C30.7773 10.4961 31.3288 9.89909 32.0488 9.48438C32.7689 9.06966 33.6143 8.8623 34.585 8.8623C35.6058 8.8623 36.5492 9.0765 37.415 9.50488L36.8271 10.8652C36.4899 10.7057 36.1322 10.5667 35.7539 10.4482C35.3802 10.3252 34.986 10.2637 34.5713 10.2637ZM45.6318 11.4395V19H44.0186V12.7109H40.6279V19H39.0215V11.4395H45.6318ZM49.4736 11.4395V15.3154C49.4736 15.7666 49.4372 16.4297 49.3643 17.3047L53.1582 11.4395H55.1201V19H53.5752V15.1924C53.5752 14.9827 53.5866 14.6432 53.6094 14.1738C53.6367 13.7044 53.6595 13.3626 53.6777 13.1484L49.8975 19H47.9355V11.4395H49.4736ZM60.459 19.1367C59.3151 19.1367 58.4447 18.804 57.8477 18.1387C57.2552 17.4688 56.959 16.5094 56.959 15.2607C56.959 13.9893 57.2689 13.0117 57.8887 12.3281C58.513 11.6445 59.4131 11.3027 60.5889 11.3027C61.3864 11.3027 62.1042 11.4508 62.7422 11.7471L62.2568 13.0391C61.5778 12.7747 61.0173 12.6426 60.5752 12.6426C59.2673 12.6426 58.6133 13.5107 58.6133 15.2471C58.6133 16.0947 58.7751 16.7327 59.0986 17.1611C59.4268 17.585 59.9053 17.7969 60.5342 17.7969C61.2497 17.7969 61.9264 17.6191 62.5645 17.2637V18.665C62.2773 18.8337 61.9697 18.9544 61.6416 19.0273C61.318 19.1003 60.9238 19.1367 60.459 19.1367ZM71.0479 15.2061C71.0479 16.4411 70.7311 17.4049 70.0977 18.0977C69.4642 18.7904 68.5824 19.1367 67.4521 19.1367C66.7458 19.1367 66.1214 18.9772 65.5791 18.6582C65.0368 18.3392 64.6198 17.8812 64.3281 17.2842C64.0365 16.6872 63.8906 15.9945 63.8906 15.2061C63.8906 13.9801 64.2051 13.0231 64.834 12.335C65.4629 11.6468 66.3493 11.3027 67.4932 11.3027C68.5869 11.3027 69.4528 11.6559 70.0908 12.3623C70.7288 13.0641 71.0479 14.012 71.0479 15.2061ZM65.5449 15.2061C65.5449 16.9515 66.1898 17.8242 67.4795 17.8242C68.7555 17.8242 69.3936 16.9515 69.3936 15.2061C69.3936 13.4788 68.751 12.6152 67.4658 12.6152C66.7913 12.6152 66.3014 12.8385 65.9961 13.2852C65.6953 13.7318 65.5449 14.3721 65.5449 15.2061ZM77.5898 11.4395H79.3535L76.2295 15.083L79.6201 19H77.7744L74.5068 15.165V19H72.9004V11.4395H74.5068V15.1104L77.5898 11.4395Z" fill="#050F19"/>
</svg>
